{
    "asset": {
        "version": "2.0",
        "generator": "Open Asset Import Library (assimp v5.0.5eb040c7)"
    },
    "accessors": [
        {
            "bufferView": 0,
            "byteOffset": 0,
            "componentType": 5126,
            "count": 12912,
            "type": "VEC3",
            "max": [
                31.419063568115236,
                1.2770329713821412,
                9.805005073547364
            ],
            "min": [
                -14.01240062713623,
                -0.5613920092582703,
                -7.686442852020264
            ]
        },
        {
            "bufferView": 1,
            "byteOffset": 0,
            "componentType": 5126,
            "count": 12912,
            "type": "VEC3",
            "max": [
                1.0,
                1.0,
                1.0
            ],
            "min": [
                -1.0,
                -1.0,
                -1.0
            ]
        },
        {
            "bufferView": 2,
            "byteOffset": 0,
            "componentType": 5126,
            "count": 12912,
            "type": "VEC2",
            "max": [
                269.587890625,
                169.69314575195313
            ],
            "min": [
                -269.5877685546875,
                -742.3935546875
            ]
        },
        {
            "bufferView": 3,
            "byteOffset": 0,
            "componentType": 5125,
            "count": 12999,
            "type": "SCALAR",
            "max": [
                12911
            ],
            "min": [
                0
            ]
        }
    ],
    "buffers": [
        {
            "byteLength": 465180,
            "uri": "result.bin"
        }
    ],
    "bufferViews": [
        {
            "buffer": 0,
            "byteOffset": 0,
            "byteLength": 154944,
            "target": 34962
        },
        {
            "buffer": 0,
            "byteOffset": 154944,
            "byteLength": 154944,
            "target": 34962
        },
        {
            "buffer": 0,
            "byteOffset": 309888,
            "byteLength": 103296,
            "target": 34962
        },
        {
            "buffer": 0,
            "byteOffset": 413184,
            "byteLength": 51996,
            "target": 34963
        }
    ],
    "materials": [
        {
            "name": "DefaultMaterial",
            "pbrMetallicRoughness": {
                "baseColorFactor": [
                    0.6000000238418579,
                    0.6000000238418579,
                    0.6000000238418579,
                    1.0
                ],
                "metallicFactor": 0.0
            }
        },
        {
            "name": "initialShadingGroup",
            "pbrMetallicRoughness": {
                "baseColorFactor": [
                    0.6000000238418579,
                    0.6000000238418579,
                    0.6000000238418579,
                    1.0
                ],
                "metallicFactor": 0.0
            }
        }
    ],
    "meshes": [
        {
            "name": "AH_64D_Apache_Longbow:ModelGroup1static_rotKomponen08Mesh762",
            "primitives": [
                {
                    "mode": 4,
                    "material": 1,
                    "indices": 3,
                    "attributes": {
                        "POSITION": 0,
                        "NORMAL": 1,
                        "TEXCOORD_0": 2
                    }
                }
            ]
        }
    ],
    "nodes": [
        {
            "name": "input.obj",
            "children": [
                1,
                2
            ]
        },
        {
            "name": "default"
        },
        {
            "name": "AH_64D_Apache_Longbow:ModelGroup1static_rotKomponen08Mesh762",
            "mesh": 0
        }
    ],
    "scenes": [
        {
            "nodes": [
                0
            ]
        }
    ],
    "scene": 0
}